<svg version="1" xmlns="http://www.w3.org/2000/svg" width="346.667" height="346.667" viewBox="0 0 260.000000 260.000000"><path d="M120.9 13.3c-1.9.7-4.6 2.1-6 3-1.3 1-24.4 23.4-51.3 50-37.4 36.8-49.4 49.2-51 52.7-3 6.6-2.7 16 .6 22.5 3.8 7.2 98.9 100.7 105.6 103.8 7.3 3.4 17.3 3 24-.8 6.8-3.9 101.4-97 104.5-102.9 3.2-6.1 3.1-17.5-.3-23.9-3.2-6-98.3-99.8-104.4-102.9-5.1-2.6-16.6-3.4-21.7-1.5zm16.6 37c5.1 2.9 9.2 9.7 10.6 17.3 2 11.5-3.4 31.9-12.1 45.2-5.4 8.4-6.2 8.7-15.7 5.7-14.7-4.6-32.8-17.7-38.8-27.9-4.8-8.2-5.1-18.9-.7-24.1 4.3-5.1 14.7-9.5 22.4-9.5 1.6 0 4.7-1.2 7.1-2.7 10.4-6.6 20.1-8 27.2-4zm55.3 25.1c6.2 3.2 10.4 10.7 12.1 21.5.6 3.5 1.7 7.1 2.5 8 2.9 3.2 7.6 14.6 7.6 18.5 0 7.9-5.6 15.1-14.5 18.7-3.7 1.5-22.1 1.7-23.6.2-.7-.7 1.5-6 7-17.3 4.5-8.9 8.1-16.8 8.1-17.5 0-.8-.9-1.6-2-2-1.1-.3-9-4-17.7-8.2l-15.7-7.6 5.9-5.5c7.6-7.1 14.2-10.2 21.8-10.2 3.2 0 7 .6 8.5 1.4zm-99.2 40.1c10.7 3 24.1 9.5 28 13.6 2.7 2.8 2.8 3.1 1.6 7.7-1.8 7-8.5 19.8-14.3 27.6-6.2 8.1-15.1 15-22.2 17.1-6.4 1.9-8.8 1.9-13.5 0-7.7-3.3-11.5-9.2-13.4-20.7-.6-4-2.1-8.6-3.2-10.2-3.1-4.7-6.6-13.8-6.6-17.8 0-7.6 4.1-13.5 12.5-17.4 7.1-3.4 19-3.3 31.1.1zm54.2 24.1c14.8 5.9 30.2 17.4 35.7 26.8 5.2 8.9 5.4 18.6.5 24.9-2.8 3.6-11.3 7.4-19 8.6-4 .7-9.5 2.6-14.6 5.2-15.3 7.8-25.4 5-31.5-8.6-5.6-12.6.2-39.1 12.1-55.3 3.9-5.2 7-5.5 16.8-1.6zm-38.3 41.1c-1.2 6.6-6.4 17.6-11.6 24.7l-5.1 6.9-4.9-4.9-4.9-4.8 3.2-2.5c5.7-4.3 12.6-12.2 15.5-17.8 2.4-4.5 3.2-5.3 5.7-5.3 2.7 0 2.8.1 2.1 3.7z"/></svg>